<?xml version="1.0" standalone="no"?>
<!DOCTYPE svg PUBLIC "-//W3C//DTD SVG 20010904//EN"
 "http://www.w3.org/TR/2001/REC-SVG-20010904/DTD/svg10.dtd">
<svg version="1.0" xmlns="http://www.w3.org/2000/svg"
 width="650.000000pt" height="650.000000pt" viewBox="0 0 650.000000 650.000000"
 preserveAspectRatio="xMidYMid meet">
<metadata>
Created by potrace 1.14, written by Peter Selinger 2001-2017
</metadata>
<g transform="translate(0.000000,650.000000) scale(0.100000,-0.100000)"
fill="#000000" stroke="none">
<path d="M2290 5570 c0 -5 5 -10 10 -10 6 0 10 5 10 10 0 6 -4 10 -10 10 -5 0
-10 -4 -10 -10z"/>
<path d="M2933 5537 c-8 -5 -72 -11 -141 -12 -70 -2 -187 -7 -259 -10 -85 -4
-133 -3 -133 4 0 14 -53 3 -66 -15 -19 -24 -135 -37 -191 -21 -21 5 -27 -1
-25 -24 1 -3 -21 -11 -49 -18 -27 -7 -51 -17 -55 -22 -3 -5 -24 -9 -48 -9 -24
0 -56 -4 -72 -9 -16 -6 -49 -12 -74 -15 -57 -6 -93 -16 -102 -30 -4 -5 -21
-12 -39 -14 -32 -3 -62 -29 -53 -44 3 -5 -4 -8 -15 -8 -11 0 -22 4 -25 9 -7
11 -56 1 -56 -12 0 -6 -3 -8 -6 -4 -3 3 -20 -7 -38 -24 -17 -16 -39 -32 -48
-35 -10 -3 -18 -12 -18 -20 0 -8 -7 -14 -15 -14 -23 0 -29 -2 -43 -17 -8 -7
-17 -11 -21 -9 -4 3 -27 -13 -50 -35 -24 -21 -47 -39 -52 -39 -4 0 -15 -18
-25 -40 -10 -22 -24 -40 -32 -40 -7 0 -11 -4 -8 -9 5 -8 -18 -43 -57 -86 -10
-11 -21 -32 -24 -47 -7 -33 -47 -72 -67 -65 -14 6 -19 -17 -31 -148 -2 -22 -8
-41 -13 -43 -5 -1 -7 -17 -3 -35 4 -18 6 -39 5 -47 0 -8 -2 -25 -2 -37 -2 -23
-37 -37 -106 -45 -54 -6 -110 -91 -85 -129 14 -22 10 -49 -6 -49 -8 0 -15 4
-15 9 0 12 -27 17 -268 50 -37 5 -79 13 -95 16 -30 8 -37 -8 -13 -34 23 -26
47 -111 52 -187 5 -66 4 -72 -15 -77 -28 -7 -26 -26 6 -61 34 -37 103 -67 167
-72 149 -12 144 -9 152 -114 5 -54 2 -71 -15 -97 -11 -18 -28 -33 -36 -33 -8
0 -15 -3 -15 -8 0 -8 -42 -28 -82 -37 -15 -4 -29 -14 -32 -22 -10 -24 71 -11
119 19 42 25 95 43 157 53 21 3 44 12 52 20 8 8 30 15 50 15 19 0 37 4 41 9 3
5 36 13 73 17 48 5 71 12 80 25 7 11 20 19 29 19 13 0 15 -9 10 -46 -5 -48 7
-68 62 -105 22 -14 23 -18 12 -52 -7 -20 -16 -37 -19 -37 -4 0 -22 -14 -41
-30 -18 -17 -38 -30 -43 -30 -4 0 -14 -11 -20 -25 -8 -17 -19 -25 -36 -25 -14
0 -46 -10 -71 -22 -57 -26 -51 -21 -56 -46 -2 -11 -11 -32 -20 -45 -16 -25
-16 -64 -1 -99 4 -9 1 -31 -8 -50 -10 -21 -14 -51 -12 -83 4 -46 -6 -82 -24
-95 -19 -12 -15 -80 5 -80 8 0 15 -3 15 -7 0 -5 11 -9 24 -9 26 -2 72 -31 131
-82 41 -36 41 -40 -1 -48 -15 -3 -40 -12 -56 -22 -27 -16 -28 -15 -58 13 -34
33 -40 17 -10 -25 14 -20 18 -37 14 -59 -6 -31 -8 -32 -50 -27 -34 4 -46 2
-56 -12 -7 -10 -28 -28 -45 -41 -18 -12 -36 -34 -39 -49 -4 -15 -13 -37 -20
-49 -13 -20 -12 -25 8 -48 13 -16 32 -25 50 -25 15 0 28 -4 28 -8 0 -5 8 -17
17 -28 26 -28 46 -71 39 -82 -3 -5 1 -15 9 -22 8 -7 15 -20 15 -30 0 -9 3 -20
7 -24 10 -9 4 -76 -9 -100 -26 -48 -4 -339 33 -447 12 -33 73 -89 98 -89 6 0
11 -4 11 -9 0 -13 57 -66 88 -82 15 -7 45 -25 67 -39 22 -15 58 -35 80 -45 22
-10 74 -33 115 -52 41 -19 86 -40 100 -45 14 -6 33 -14 42 -19 10 -5 24 -9 32
-9 8 0 16 -4 18 -8 3 -7 87 -36 263 -91 116 -36 243 -68 310 -77 17 -3 41 -7
55 -11 55 -14 107 -22 205 -33 50 -5 100 -11 112 -14 13 -3 85 -6 161 -7 76
-1 165 -6 198 -10 83 -12 812 -12 849 -1 17 5 75 10 130 11 55 2 113 4 130 6
16 2 50 6 75 9 25 3 70 8 100 11 30 4 72 10 93 14 26 6 37 5 37 -3 0 -8 2 -8
8 0 8 13 81 36 93 29 4 -3 9 -1 11 4 1 5 17 11 34 14 17 3 47 12 65 20 36 16
74 26 124 33 274 40 531 157 697 317 52 51 84 98 116 173 28 68 33 93 37 204
4 109 -7 187 -38 248 -17 34 -18 45 -8 51 9 6 11 21 6 53 -7 47 -3 52 52 59 5
1 18 10 31 20 26 20 67 13 67 -12 0 -15 65 -39 105 -39 14 1 40 -2 57 -6 29
-6 34 -3 43 22 6 16 17 34 25 40 7 6 15 17 17 24 2 11 -12 13 -69 11 -52 -2
-73 1 -73 9 0 7 -18 30 -40 52 -23 21 -39 42 -36 47 12 19 -50 92 -143 167
-13 10 -28 24 -35 29 -6 6 -29 19 -51 29 -22 10 -43 21 -48 23 -4 2 -24 -14
-45 -36 -25 -27 -55 -46 -91 -57 -51 -17 -54 -17 -88 1 -35 19 -35 19 -74 -3
-30 -17 -48 -21 -74 -16 -20 3 -38 11 -41 16 -9 14 -13 188 -5 193 4 2 45 5
91 6 47 1 105 8 130 15 25 8 64 14 87 14 23 0 54 5 68 10 15 6 45 12 66 14 30
3 49 13 79 45 22 23 40 46 40 51 0 15 26 12 40 -5 7 -8 19 -15 27 -15 8 0 31
-11 51 -25 61 -42 112 -30 112 26 0 16 8 34 19 41 39 28 43 127 7 202 -14 30
-26 59 -26 65 0 5 -6 14 -13 18 -7 4 -23 24 -35 43 -11 20 -38 49 -58 65 -72
58 -82 70 -77 98 6 28 32 50 75 60 15 4 36 20 48 37 l21 30 -24 48 c-28 56
-29 112 -2 142 37 41 131 47 208 13 33 -14 40 -15 48 -2 14 22 11 36 -10 42
-20 5 -51 91 -51 142 0 30 21 75 45 95 14 11 12 15 -15 31 -46 29 -40 55 17
65 49 9 57 19 31 36 -41 27 -126 49 -135 35 -5 -7 -19 -17 -33 -23 -54 -24
-76 -33 -98 -39 -12 -4 -29 -20 -37 -36 -9 -16 -23 -29 -31 -29 -13 0 -15 11
-10 76 5 70 5 76 -12 69 -9 -4 -37 -10 -61 -13 l-43 -5 7 34 c10 45 8 110 -5
144 -6 15 -8 36 -5 45 5 17 -31 149 -44 160 -3 3 -13 18 -21 33 -8 16 -23 39
-35 51 -11 13 -36 54 -55 91 -26 50 -46 75 -76 94 -23 14 -45 35 -50 46 -5 11
-19 21 -31 23 -13 2 -31 15 -42 28 -11 14 -29 26 -40 27 -12 1 -21 8 -21 18 0
21 -68 66 -97 64 -14 -1 -33 10 -48 26 -13 16 -37 31 -52 35 -16 3 -37 10 -48
15 -11 5 -32 13 -47 19 -16 5 -28 14 -28 19 0 11 -41 22 -99 27 -26 2 -48 10
-53 18 -14 24 -96 56 -145 56 -24 0 -55 7 -69 17 -14 9 -51 20 -82 24 -30 4
-59 14 -63 21 -5 7 -9 9 -9 4 0 -5 -6 -3 -14 3 -8 7 -17 8 -20 3 -10 -16 -45
-6 -67 19 -18 21 -29 24 -85 23 -35 0 -64 3 -64 7 0 5 -6 6 -14 3 -8 -3 -23
-1 -34 5 -11 6 -38 13 -59 16 -21 3 -63 10 -93 15 -76 14 -214 26 -279 24 -29
-1 -64 4 -78 11 -13 7 -42 12 -63 10 -27 -2 -40 1 -44 12 -6 13 -9 13 -29 0
-27 -17 -74 -19 -102 -4 -24 13 -239 16 -262 4z"/>
</g>
</svg>
